<?xml version="1.0" encoding="utf-8"?>

<!DOCTYPE svg PUBLIC "-//W3C//DTD SVG 1.1//EN" "http://www.w3.org/Graphics/SVG/1.1/DTD/svg11.dtd">
<!-- Uploaded to: SVG Repo, www.svgrepo.com, Generator: SVG Repo Mixer Tools -->
<svg height="800px" width="800px" version="1.1" id="_x32_" xmlns="http://www.w3.org/2000/svg" xmlns:xlink="http://www.w3.org/1999/xlink" 
	 viewBox="0 0 512 512"  xml:space="preserve">
<style type="text/css">
	.st0{fill:#000000;}
</style>
<g>
	<path class="st0" d="M400.486,54.843h-23.954c0.208,2.016,0.323,4.048,0.323,6.119V87.81c0,5.804-0.877,11.4-2.463,16.696h30.312
		c0.586,0,1.055,0.469,1.055,1.054v345.485c0,0.585-0.469,1.055-1.055,1.055H107.296c-0.585,0-1.055-0.47-1.055-1.055V105.56
		c0-0.585,0.47-1.054,1.055-1.054h30.312c-1.585-5.296-2.463-10.892-2.463-16.696V60.962c0-2.071,0.116-4.103,0.323-6.119h-23.954
		c-28.988,0-52.565,23.576-52.565,52.564v352.027c0,28.988,23.577,52.565,52.565,52.565h288.971
		c28.988,0,52.564-23.577,52.564-52.565V107.408C453.05,78.42,429.474,54.843,400.486,54.843z"/>
	<path class="st0" d="M193.483,122.502h125.035c19.127,0,34.691-15.565,34.691-34.692V60.962c0-19.128-15.564-34.691-34.691-34.691
		h-27.395C286.612,10.884,272.58,0,256,0c-16.588,0-30.612,10.884-35.13,26.271h-27.387c-19.128,0-34.692,15.564-34.692,34.691
		V87.81C158.791,106.938,174.355,122.502,193.483,122.502z M256.008,23.561c7.281,0,13.209,5.927,13.209,13.209
		c0,7.305-5.928,13.232-13.209,13.232c-7.297,0-13.232-5.926-13.232-13.232C242.776,29.488,248.711,23.561,256.008,23.561z"/>
	<polygon class="st0" points="188.387,204.871 220.046,173.204 208.538,161.696 176.872,193.355 156.728,173.204 145.214,184.719 
		176.872,216.386 	"/>
	<polygon class="st0" points="188.387,287.632 220.046,255.965 208.538,244.458 176.872,276.116 156.728,255.965 145.214,267.48 
		176.872,299.147 	"/>
	<polygon class="st0" points="220.046,338.726 208.538,327.219 176.872,358.878 156.728,338.726 145.214,350.241 188.387,370.393 	
		"/>
</g>
</svg>